<mxfile host="65bd71144e">
    <diagram id="-nJwM8MVXj22u1nWOoSV" name="Page-1">
        <mxGraphModel dx="659" dy="409" grid="1" gridSize="10" guides="1" tooltips="1" connect="1" arrows="1" fold="1" page="1" pageScale="1" pageWidth="827" pageHeight="1169" math="0" shadow="0">
            <root>
                <mxCell id="0"/>
                <mxCell id="1" parent="0"/>
                <mxCell id="2" value="Expense" style="whiteSpace=wrap;html=1;" vertex="1" parent="1">
                    <mxGeometry x="60" y="50" width="140" height="40" as="geometry"/>
                </mxCell>
                <mxCell id="3" value="&lt;div&gt;&lt;span&gt;id : int&lt;/span&gt;&lt;/div&gt;&lt;div&gt;&lt;span&gt;date: date&lt;/span&gt;&lt;/div&gt;&lt;div&gt;&lt;span&gt;merchant: merchant&lt;/span&gt;&lt;/div&gt;&lt;div&gt;&lt;span&gt;category: category&lt;/span&gt;&lt;/div&gt;&lt;div&gt;&lt;span&gt;amount: int&lt;/span&gt;&lt;/div&gt;&lt;div&gt;&lt;span&gt;description: str&lt;/span&gt;&lt;/div&gt;&lt;div&gt;&lt;span&gt;&lt;br&gt;&lt;/span&gt;&lt;/div&gt;" style="whiteSpace=wrap;html=1;align=left;" vertex="1" parent="1">
                    <mxGeometry x="60" y="90" width="140" height="100" as="geometry"/>
                </mxCell>
                <mxCell id="5" value="Merchant" style="whiteSpace=wrap;html=1;" vertex="1" parent="1">
                    <mxGeometry x="280" y="25" width="140" height="40" as="geometry"/>
                </mxCell>
                <mxCell id="6" value="&lt;div&gt;&lt;span&gt;id : int&lt;/span&gt;&lt;/div&gt;&lt;div&gt;name: str&lt;/div&gt;&lt;div&gt;&lt;span&gt;&lt;br&gt;&lt;/span&gt;&lt;/div&gt;" style="whiteSpace=wrap;html=1;align=left;" vertex="1" parent="1">
                    <mxGeometry x="280" y="65" width="140" height="50" as="geometry"/>
                </mxCell>
                <mxCell id="7" value="Category" style="whiteSpace=wrap;html=1;" vertex="1" parent="1">
                    <mxGeometry x="280" y="130" width="140" height="40" as="geometry"/>
                </mxCell>
                <mxCell id="8" value="&lt;div&gt;&lt;span&gt;id : int&lt;/span&gt;&lt;/div&gt;&lt;div&gt;name: str&lt;/div&gt;&lt;div&gt;&lt;span&gt;&lt;br&gt;&lt;/span&gt;&lt;/div&gt;" style="whiteSpace=wrap;html=1;align=left;" vertex="1" parent="1">
                    <mxGeometry x="280" y="170" width="140" height="50" as="geometry"/>
                </mxCell>
            </root>
        </mxGraphModel>
    </diagram>
</mxfile>